<svg data-v-423bf9ae="" xmlns="http://www.w3.org/2000/svg" viewBox="0 0 834.1916434331478 163" class="iconAbove"><!----><!----><!----><g data-v-423bf9ae="" id="8c523d8d-9ff2-47f5-872a-c0defb3626b6" fill="#0f71f2" transform="matrix(5.988024248455585,0,0,5.988024248455585,-9.161672257986766,78.50898134062814)"><path d="M7.66 4.55L7.66 4.55Q7.66 4.69 7.52 4.69L7.52 4.69L2.13 4.69L2.13 4.69Q2.07 4.69 2.07 4.75L2.07 4.75L2.07 8.78L2.07 8.78Q2.07 8.83 2.13 8.83L2.13 8.83L5.98 8.83L5.98 8.83Q6.12 8.83 6.12 8.97L6.12 8.97L6.12 9.20L6.12 9.20Q6.12 9.34 5.98 9.34L5.98 9.34L2.13 9.34L2.13 9.34Q2.07 9.34 2.07 9.39L2.07 9.39L2.07 13.86L2.07 13.86Q2.07 14 1.93 14L1.93 14L1.67 14L1.67 14Q1.53 14 1.53 13.86L1.53 13.86L1.53 4.34L1.53 4.34Q1.53 4.20 1.67 4.20L1.67 4.20L7.52 4.20L7.52 4.20Q7.66 4.20 7.66 4.34L7.66 4.34L7.66 4.55ZM15.99 13.83L15.99 13.83Q16.03 13.87 16.03 13.92L16.03 13.92L16.03 13.92Q16.03 14 15.90 14L15.90 14L15.58 14L15.58 14Q15.48 14 15.41 13.92L15.41 13.92L14.45 12.75L14.45 12.75Q14.43 12.73 14.41 12.73L14.41 12.73L14.41 12.73Q14.38 12.74 14.36 12.75L14.36 12.75L14.36 12.75Q13.68 13.48 13.03 13.80L13.03 13.80L13.03 13.80Q12.39 14.11 11.54 14.11L11.54 14.11L11.54 14.11Q10.33 14.11 9.63 13.54L9.63 13.54L9.63 13.54Q8.92 12.98 8.92 11.94L8.92 11.94L8.92 11.94Q8.92 10.95 9.49 10.25L9.49 10.25L9.49 10.25Q10.05 9.55 11.10 8.79L11.10 8.79L11.10 8.79Q11.14 8.76 11.10 8.72L11.10 8.72L11.10 8.72Q10.25 7.66 9.97 7.14L9.97 7.14L9.97 7.14Q9.69 6.62 9.69 6.12L9.69 6.12L9.69 6.12Q9.69 5.21 10.27 4.65L10.27 4.65L10.27 4.65Q10.85 4.09 11.80 4.09L11.80 4.09L11.80 4.09Q12.78 4.09 13.39 4.62L13.39 4.62L13.39 4.62Q14 5.15 14 6.03L14 6.03L14 6.03Q14 6.89 13.47 7.50L13.47 7.50L13.47 7.50Q12.94 8.12 11.93 8.83L11.93 8.83L11.93 8.83Q11.89 8.86 11.93 8.90L11.93 8.90L11.93 8.90Q12.74 9.91 13.37 10.65L13.37 10.65L13.69 11.05L14.36 11.87L14.36 11.87Q14.41 11.93 14.45 11.87L14.45 11.87L14.45 11.87Q14.80 11.44 15.40 10.64L15.40 10.64L15.40 10.64Q15.48 10.53 15.60 10.60L15.60 10.60L15.79 10.72L15.79 10.72Q15.92 10.81 15.83 10.92L15.83 10.92L15.83 10.92Q15.13 11.86 14.77 12.28L14.77 12.28L14.77 12.31L14.77 12.31Q14.77 12.36 14.84 12.45L14.84 12.45L15.57 13.31L15.57 13.31Q15.72 13.51 15.83 13.63L15.83 13.63L15.83 13.63Q15.93 13.75 15.99 13.83L15.99 13.83ZM11.83 4.61L11.83 4.61Q11.10 4.61 10.67 5.00L10.67 5.00L10.67 5.00Q10.23 5.40 10.23 6.12L10.23 6.12L10.23 6.12Q10.23 6.51 10.48 6.95L10.48 6.95L10.48 6.95Q10.72 7.39 11.52 8.41L11.52 8.41L11.52 8.41Q11.56 8.46 11.61 8.43L11.61 8.43L11.61 8.43Q12.53 7.76 12.99 7.23L12.99 7.23L12.99 7.23Q13.45 6.71 13.45 6.03L13.45 6.03L13.45 6.03Q13.45 5.39 13.00 5.00L13.00 5.00L13.00 5.00Q12.54 4.61 11.83 4.61L11.83 4.61ZM11.56 13.62L11.56 13.62Q12.31 13.62 12.86 13.33L12.86 13.33L12.86 13.33Q13.41 13.03 14.03 12.35L14.03 12.35L14.03 12.35Q14.07 12.31 14.03 12.26L14.03 12.26L13.19 11.24L13.19 11.24Q12.95 10.93 12.89 10.88L12.89 10.88L11.51 9.21L11.51 9.21Q11.49 9.17 11.44 9.20L11.44 9.20L11.44 9.20Q10.49 9.91 9.98 10.51L9.98 10.51L9.98 10.51Q9.48 11.10 9.46 11.90L9.46 11.90L9.46 11.90Q9.46 12.71 10.03 13.17L10.03 13.17L10.03 13.17Q10.60 13.62 11.56 13.62L11.56 13.62ZM20.33 14L20.33 14Q20.22 14 20.17 13.89L20.17 13.89L17.40 4.35L17.39 4.31L17.39 4.31Q17.39 4.20 17.53 4.20L17.53 4.20L17.79 4.20L17.79 4.20Q17.91 4.20 17.95 4.31L17.95 4.31L20.44 12.85L20.44 12.85Q20.45 12.88 20.48 12.88L20.48 12.88L20.48 12.88Q20.50 12.88 20.51 12.85L20.51 12.85L22.79 4.33L22.79 4.33Q22.82 4.20 22.95 4.20L22.95 4.20L23.24 4.20L23.24 4.20Q23.37 4.20 23.39 4.33L23.39 4.33L25.75 12.85L25.75 12.85Q25.76 12.88 25.78 12.88L25.78 12.88L25.78 12.88Q25.80 12.88 25.82 12.85L25.82 12.85L28.32 4.31L28.32 4.31Q28.36 4.20 28.48 4.20L28.48 4.20L28.74 4.20L28.74 4.20Q28.81 4.20 28.85 4.24L28.85 4.24L28.85 4.24Q28.88 4.28 28.87 4.35L28.87 4.35L26.07 13.89L26.07 13.89Q26.03 14 25.91 14L25.91 14L25.62 14L25.62 14Q25.49 14 25.47 13.87L25.47 13.87L23.14 5.22L23.14 5.22Q23.13 5.19 23.11 5.19L23.11 5.19L23.11 5.19Q23.09 5.19 23.07 5.22L23.07 5.22L20.76 13.87L20.76 13.87Q20.73 14 20.61 14L20.61 14L20.33 14ZM39.73 4.55L39.73 4.55Q39.73 4.69 39.59 4.69L39.59 4.69L34.20 4.69L34.20 4.69Q34.15 4.69 34.15 4.75L34.15 4.75L34.15 8.78L34.15 8.78Q34.15 8.83 34.20 8.83L34.20 8.83L38.05 8.83L38.05 8.83Q38.19 8.83 38.19 8.97L38.19 8.97L38.19 9.20L38.19 9.20Q38.19 9.34 38.05 9.34L38.05 9.34L34.20 9.34L34.20 9.34Q34.15 9.34 34.15 9.39L34.15 9.39L34.15 13.86L34.15 13.86Q34.15 14 34.01 14L34.01 14L33.74 14L33.74 14Q33.60 14 33.60 13.86L33.60 13.86L33.60 4.34L33.60 4.34Q33.60 4.20 33.74 4.20L33.74 4.20L39.59 4.20L39.59 4.20Q39.73 4.20 39.73 4.34L39.73 4.34L39.73 4.55ZM43.89 6.92L43.89 6.92Q44.38 6.92 44.72 7.07L44.72 7.07L44.72 7.07Q44.83 7.11 44.79 7.25L44.79 7.25L44.69 7.53L44.69 7.53Q44.65 7.67 44.52 7.60L44.52 7.60L44.52 7.60Q44.21 7.49 43.82 7.50L43.82 7.50L43.82 7.50Q43.27 7.50 42.84 7.80L42.84 7.80L42.84 7.80Q42.41 8.09 42.16 8.58L42.16 8.58L42.16 8.58Q41.92 9.07 41.92 9.66L41.92 9.66L41.92 13.86L41.92 13.86Q41.92 14 41.78 14L41.78 14L41.51 14L41.51 14Q41.37 14 41.37 13.86L41.37 13.86L41.37 7.11L41.37 7.11Q41.37 6.97 41.51 6.97L41.51 6.97L41.78 6.97L41.78 6.97Q41.92 6.97 41.92 7.11L41.92 7.11L41.92 8.16L41.92 8.16Q41.92 8.20 41.94 8.21L41.94 8.21L41.94 8.21Q41.96 8.22 41.97 8.18L41.97 8.18L41.97 8.18Q42.27 7.59 42.76 7.25L42.76 7.25L42.76 7.25Q43.25 6.92 43.89 6.92L43.89 6.92ZM48.80 14.11L48.80 14.11Q47.82 14.11 47.15 13.60L47.15 13.60L47.15 13.60Q46.48 13.09 46.26 12.24L46.26 12.24L46.26 12.24Q46.17 11.91 46.14 11.52L46.14 11.52L46.14 11.52Q46.12 11.12 46.12 10.47L46.12 10.47L46.12 10.47Q46.12 9.81 46.14 9.42L46.14 9.42L46.14 9.42Q46.16 9.03 46.24 8.72L46.24 8.72L46.24 8.72Q46.47 7.88 47.15 7.37L47.15 7.37L47.15 7.37Q47.84 6.86 48.80 6.86L48.80 6.86L48.80 6.86Q49.78 6.86 50.48 7.37L50.48 7.37L50.48 7.37Q51.17 7.88 51.37 8.72L51.37 8.72L51.37 8.72Q51.44 9.03 51.46 9.41L51.46 9.41L51.46 9.41Q51.48 9.79 51.48 10.47L51.48 10.47L51.48 10.47Q51.48 11.19 51.46 11.56L51.46 11.56L51.46 11.56Q51.44 11.93 51.37 12.24L51.37 12.24L51.37 12.24Q51.16 13.09 50.47 13.60L50.47 13.60L50.47 13.60Q49.78 14.11 48.80 14.11L48.80 14.11ZM48.80 13.62L48.80 13.62Q49.62 13.62 50.16 13.18L50.16 13.18L50.16 13.18Q50.71 12.74 50.86 12.03L50.86 12.03L50.86 12.03Q50.90 11.82 50.92 11.39L50.92 11.39L50.92 11.39Q50.93 10.96 50.93 10.49L50.93 10.49L50.93 10.49Q50.93 9.97 50.92 9.55L50.92 9.55L50.92 9.55Q50.90 9.14 50.86 8.95L50.86 8.95L50.86 8.95Q50.72 8.23 50.16 7.79L50.16 7.79L50.16 7.79Q49.60 7.35 48.79 7.35L48.79 7.35L48.79 7.35Q47.99 7.35 47.45 7.79L47.45 7.79L47.45 7.79Q46.90 8.23 46.75 8.95L46.75 8.95L46.75 8.95Q46.66 9.31 46.66 10.49L46.66 10.49L46.66 10.49Q46.66 11.68 46.75 12.03L46.75 12.03L46.75 12.03Q46.90 12.75 47.45 13.19L47.45 13.19L47.45 13.19Q47.99 13.62 48.80 13.62L48.80 13.62ZM56.49 6.87L56.49 6.87Q57.54 6.87 58.20 7.52L58.20 7.52L58.20 7.52Q58.86 8.18 58.86 9.24L58.86 9.24L58.86 13.86L58.86 13.86Q58.86 14 58.72 14L58.72 14L58.45 14L58.45 14Q58.31 14 58.31 13.86L58.31 13.86L58.31 9.34L58.31 9.34Q58.31 8.47 57.77 7.92L57.77 7.92L57.77 7.92Q57.23 7.36 56.39 7.36L56.39 7.36L56.39 7.36Q55.48 7.36 54.93 7.90L54.93 7.90L54.93 7.90Q54.38 8.44 54.38 9.31L54.38 9.31L54.38 13.86L54.38 13.86Q54.38 14 54.24 14L54.24 14L53.97 14L53.97 14Q53.83 14 53.83 13.86L53.83 13.86L53.83 7.11L53.83 7.11Q53.83 6.97 53.97 6.97L53.97 6.97L54.24 6.97L54.24 6.97Q54.38 6.97 54.38 7.11L54.38 7.11L54.38 7.87L54.38 7.87Q54.38 7.91 54.40 7.92L54.40 7.92L54.40 7.92Q54.42 7.92 54.43 7.90L54.43 7.90L54.43 7.90Q54.74 7.41 55.27 7.14L55.27 7.14L55.27 7.14Q55.79 6.87 56.49 6.87L56.49 6.87ZM64.11 7.31L64.11 7.31Q64.11 7.45 63.97 7.45L63.97 7.45L62.27 7.45L62.27 7.45Q62.22 7.45 62.22 7.50L62.22 7.50L62.22 12.15L62.22 12.15Q62.22 12.91 62.57 13.20L62.57 13.20L62.57 13.20Q62.92 13.50 63.66 13.50L63.66 13.50L63.97 13.50L63.97 13.50Q64.11 13.50 64.11 13.64L64.11 13.64L64.11 13.85L64.11 13.85Q64.11 13.99 63.97 14L63.97 14L63.62 14L63.62 14Q62.68 14 62.18 13.62L62.18 13.62L62.18 13.62Q61.68 13.24 61.68 12.25L61.68 12.25L61.68 7.50L61.68 7.50Q61.68 7.45 61.63 7.45L61.63 7.45L60.77 7.45L60.77 7.45Q60.63 7.45 60.63 7.31L60.63 7.31L60.63 7.11L60.63 7.11Q60.63 6.97 60.77 6.97L60.77 6.97L61.63 6.97L61.63 6.97Q61.68 6.97 61.68 6.92L61.68 6.92L61.68 5.33L61.68 5.33Q61.68 5.19 61.82 5.19L61.82 5.19L62.08 5.19L62.08 5.19Q62.22 5.19 62.22 5.33L62.22 5.33L62.22 6.92L62.22 6.92Q62.22 6.97 62.27 6.97L62.27 6.97L63.97 6.97L63.97 6.97Q64.11 6.97 64.11 7.11L64.11 7.11L64.11 7.31ZM68.78 13.62L68.78 13.62Q69.51 13.62 70.03 13.29L70.03 13.29L70.03 13.29Q70.55 12.95 70.80 12.38L70.80 12.38L70.80 12.38Q70.84 12.25 70.97 12.29L70.97 12.29L71.15 12.35L71.15 12.35Q71.29 12.39 71.25 12.53L71.25 12.53L71.25 12.53Q70.97 13.24 70.31 13.68L70.31 13.68L70.31 13.68Q69.65 14.11 68.75 14.11L68.75 14.11L68.75 14.11Q67.80 14.11 67.14 13.62L67.14 13.62L67.14 13.62Q66.49 13.13 66.23 12.31L66.23 12.31L66.23 12.31Q66.08 11.72 66.08 10.47L66.08 10.47L66.08 10.47Q66.08 9.83 66.10 9.44L66.10 9.44L66.10 9.44Q66.12 9.06 66.19 8.75L66.19 8.75L66.19 8.75Q66.40 7.90 67.08 7.38L67.08 7.38L67.08 7.38Q67.76 6.86 68.74 6.86L68.74 6.86L68.74 6.86Q69.78 6.86 70.46 7.41L70.46 7.41L70.46 7.41Q71.15 7.97 71.33 8.89L71.33 8.89L71.33 8.89Q71.39 9.16 71.40 9.52L71.40 9.52L71.40 9.52Q71.41 9.88 71.41 10.47L71.41 10.47L71.41 10.47Q71.41 10.63 71.27 10.63L71.27 10.63L66.68 10.63L66.68 10.63Q66.63 10.63 66.63 10.68L66.63 10.68L66.63 10.68Q66.63 11.13 66.64 11.49L66.64 11.49L66.64 11.49Q66.65 11.86 66.70 12.03L66.70 12.03L66.70 12.03Q66.84 12.75 67.39 13.19L67.39 13.19L67.39 13.19Q67.94 13.62 68.78 13.62L68.78 13.62ZM68.74 7.35L68.74 7.35Q67.91 7.35 67.38 7.78L67.38 7.78L67.38 7.78Q66.84 8.22 66.70 8.92L66.70 8.92L66.70 8.92Q66.63 9.37 66.63 10.12L66.63 10.12L66.63 10.12Q66.63 10.18 66.68 10.18L66.68 10.18L70.81 10.18L70.81 10.18Q70.87 10.18 70.87 10.12L70.87 10.12L70.87 10.12Q70.87 9.23 70.80 8.95L70.80 8.95L70.80 8.95Q70.64 8.23 70.10 7.79L70.10 7.79L70.10 7.79Q69.55 7.35 68.74 7.35L68.74 7.35ZM76.37 6.87L76.37 6.87Q77.42 6.87 78.08 7.52L78.08 7.52L78.08 7.52Q78.74 8.18 78.74 9.24L78.74 9.24L78.74 13.86L78.74 13.86Q78.74 14 78.60 14L78.60 14L78.33 14L78.33 14Q78.19 14 78.19 13.86L78.19 13.86L78.19 9.34L78.19 9.34Q78.19 8.47 77.65 7.92L77.65 7.92L77.65 7.92Q77.11 7.36 76.27 7.36L76.27 7.36L76.27 7.36Q75.36 7.36 74.81 7.90L74.81 7.90L74.81 7.90Q74.26 8.44 74.26 9.31L74.26 9.31L74.26 13.86L74.26 13.86Q74.26 14 74.12 14L74.12 14L73.85 14L73.85 14Q73.71 14 73.71 13.86L73.71 13.86L73.71 7.11L73.71 7.11Q73.71 6.97 73.85 6.97L73.85 6.97L74.12 6.97L74.12 6.97Q74.26 6.97 74.26 7.11L74.26 7.11L74.26 7.87L74.26 7.87Q74.26 7.91 74.28 7.92L74.28 7.92L74.28 7.92Q74.30 7.92 74.31 7.90L74.31 7.90L74.31 7.90Q74.62 7.41 75.14 7.14L75.14 7.14L75.14 7.14Q75.67 6.87 76.37 6.87L76.37 6.87ZM85.57 4.34L85.57 4.34Q85.57 4.20 85.71 4.20L85.71 4.20L85.97 4.20L85.97 4.20Q86.11 4.20 86.11 4.34L86.11 4.34L86.11 13.86L86.11 13.86Q86.11 14 85.97 14L85.97 14L85.71 14L85.71 14Q85.57 14 85.57 13.86L85.57 13.86L85.57 13.10L85.57 13.10Q85.57 13.06 85.55 13.06L85.55 13.06L85.55 13.06Q85.53 13.06 85.50 13.09L85.50 13.09L85.50 13.09Q85.19 13.58 84.69 13.85L84.69 13.85L84.69 13.85Q84.20 14.11 83.55 14.11L83.55 14.11L83.55 14.11Q82.60 14.11 81.95 13.61L81.95 13.61L81.95 13.61Q81.30 13.10 81.09 12.26L81.09 12.26L81.09 12.26Q81.00 11.96 80.98 11.59L80.98 11.59L80.98 11.59Q80.96 11.21 80.96 10.50L80.96 10.50L80.96 10.50Q80.96 9.79 80.98 9.41L80.98 9.41L80.98 9.41Q81.00 9.03 81.07 8.72L81.07 8.72L81.07 8.72Q81.28 7.88 81.94 7.37L81.94 7.37L81.94 7.37Q82.59 6.86 83.55 6.86L83.55 6.86L83.55 6.86Q84.20 6.86 84.70 7.13L84.70 7.13L84.70 7.13Q85.20 7.41 85.50 7.88L85.50 7.88L85.50 7.88Q85.53 7.91 85.55 7.91L85.55 7.91L85.55 7.91Q85.57 7.91 85.57 7.87L85.57 7.87L85.57 4.34ZM85.46 12.12L85.46 12.12Q85.53 11.89 85.55 11.59L85.55 11.59L85.55 11.59Q85.57 11.30 85.57 10.50L85.57 10.50L85.57 10.50Q85.57 9.69 85.55 9.39L85.55 9.39L85.55 9.39Q85.53 9.09 85.44 8.83L85.44 8.83L85.44 8.83Q85.32 8.19 84.83 7.77L84.83 7.77L84.83 7.77Q84.34 7.35 83.61 7.35L83.61 7.35L83.61 7.35Q82.87 7.35 82.33 7.76L82.33 7.76L82.33 7.76Q81.80 8.18 81.65 8.82L81.65 8.82L81.65 8.82Q81.56 9.07 81.54 9.38L81.54 9.38L81.54 9.38Q81.51 9.69 81.51 10.47L81.51 10.47L81.51 10.47Q81.51 11.24 81.54 11.54L81.54 11.54L81.54 11.54Q81.56 11.84 81.63 12.12L81.63 12.12L81.63 12.12Q81.76 12.78 82.30 13.20L82.30 13.20L82.30 13.20Q82.84 13.62 83.59 13.62L83.59 13.62L83.59 13.62Q84.35 13.62 84.83 13.20L84.83 13.20L84.83 13.20Q85.32 12.77 85.46 12.12L85.46 12.12ZM94.37 14.11L94.37 14.11Q92.88 14.11 92.00 13.44L92.00 13.44L92.00 13.44Q91.13 12.77 91.13 11.63L91.13 11.63L91.13 11.14L91.13 11.14Q91.13 11.00 91.27 11.00L91.27 11.00L91.50 11.00L91.50 11.00Q91.64 11.00 91.64 11.14L91.64 11.14L91.64 11.59L91.64 11.59Q91.64 12.50 92.39 13.06L92.39 13.06L92.39 13.06Q93.14 13.62 94.42 13.62L94.42 13.62L94.42 13.62Q95.65 13.62 96.31 13.10L96.31 13.10L96.31 13.10Q96.96 12.59 96.96 11.69L96.96 11.69L96.96 11.69Q96.96 11.13 96.68 10.72L96.68 10.72L96.68 10.72Q96.40 10.32 95.82 9.96L95.82 9.96L95.82 9.96Q95.23 9.60 94.15 9.14L94.15 9.14L94.15 9.14Q93.06 8.68 92.50 8.37L92.50 8.37L92.50 8.37Q91.95 8.06 91.63 7.60L91.63 7.60L91.63 7.60Q91.31 7.14 91.31 6.43L91.31 6.43L91.31 6.43Q91.31 5.29 92.07 4.69L92.07 4.69L92.07 4.69Q92.83 4.09 94.22 4.09L94.22 4.09L94.22 4.09Q95.73 4.09 96.57 4.77L96.57 4.77L96.57 4.77Q97.41 5.45 97.41 6.59L97.41 6.59L97.41 6.93L97.41 6.93Q97.41 7.07 97.27 7.07L97.27 7.07L97.01 7.07L97.01 7.07Q96.87 7.07 96.87 6.93L96.87 6.93L96.87 6.64L96.87 6.64Q96.87 5.70 96.17 5.14L96.17 5.14L96.17 5.14Q95.47 4.58 94.19 4.58L94.19 4.58L94.19 4.58Q93.06 4.58 92.45 5.05L92.45 5.05L92.45 5.05Q91.84 5.52 91.84 6.40L91.84 6.40L91.84 6.40Q91.84 6.99 92.11 7.35L92.11 7.35L92.11 7.35Q92.39 7.71 92.90 7.99L92.90 7.99L92.90 7.99Q93.41 8.26 94.47 8.69L94.47 8.69L94.47 8.69Q95.52 9.13 96.17 9.53L96.17 9.53L96.17 9.53Q96.81 9.93 97.16 10.44L97.16 10.44L97.16 10.44Q97.51 10.95 97.51 11.65L97.51 11.65L97.51 11.65Q97.51 12.77 96.69 13.44L96.69 13.44L96.69 13.44Q95.87 14.11 94.37 14.11L94.37 14.11ZM102.13 13.62L102.13 13.62Q102.86 13.62 103.38 13.29L103.38 13.29L103.38 13.29Q103.89 12.95 104.15 12.38L104.15 12.38L104.15 12.38Q104.19 12.25 104.31 12.29L104.31 12.29L104.50 12.35L104.50 12.35Q104.64 12.39 104.59 12.53L104.59 12.53L104.59 12.53Q104.31 13.24 103.66 13.68L103.66 13.68L103.66 13.68Q103.00 14.11 102.10 14.11L102.10 14.11L102.10 14.11Q101.15 14.11 100.49 13.62L100.49 13.62L100.49 13.62Q99.83 13.13 99.58 12.31L99.58 12.31L99.58 12.31Q99.43 11.72 99.43 10.47L99.43 10.47L99.43 10.47Q99.43 9.83 99.45 9.44L99.45 9.44L99.45 9.44Q99.47 9.06 99.54 8.75L99.54 8.75L99.54 8.75Q99.75 7.90 100.43 7.38L100.43 7.38L100.43 7.38Q101.11 6.86 102.09 6.86L102.09 6.86L102.09 6.86Q103.12 6.86 103.81 7.41L103.81 7.41L103.81 7.41Q104.50 7.97 104.68 8.89L104.68 8.89L104.68 8.89Q104.73 9.16 104.75 9.52L104.75 9.52L104.75 9.52Q104.76 9.88 104.76 10.47L104.76 10.47L104.76 10.47Q104.76 10.63 104.62 10.63L104.62 10.63L100.03 10.63L100.03 10.63Q99.97 10.63 99.97 10.68L99.97 10.68L99.97 10.68Q99.97 11.13 99.99 11.49L99.99 11.49L99.99 11.49Q100.00 11.86 100.04 12.03L100.04 12.03L100.04 12.03Q100.18 12.75 100.74 13.19L100.74 13.19L100.74 13.19Q101.29 13.62 102.13 13.62L102.13 13.62ZM102.09 7.35L102.09 7.35Q101.26 7.35 100.72 7.78L100.72 7.78L100.72 7.78Q100.18 8.22 100.04 8.92L100.04 8.92L100.04 8.92Q99.97 9.37 99.97 10.12L99.97 10.12L99.97 10.12Q99.97 10.18 100.03 10.18L100.03 10.18L104.16 10.18L104.16 10.18Q104.22 10.18 104.22 10.12L104.22 10.12L104.22 10.12Q104.22 9.23 104.15 8.95L104.15 8.95L104.15 8.95Q103.99 8.23 103.45 7.79L103.45 7.79L103.45 7.79Q102.90 7.35 102.09 7.35L102.09 7.35ZM109.58 6.92L109.58 6.92Q110.07 6.92 110.40 7.07L110.40 7.07L110.40 7.07Q110.52 7.11 110.47 7.25L110.47 7.25L110.38 7.53L110.38 7.53Q110.33 7.67 110.21 7.60L110.21 7.60L110.21 7.60Q109.90 7.49 109.51 7.50L109.51 7.50L109.51 7.50Q108.96 7.50 108.53 7.80L108.53 7.80L108.53 7.80Q108.09 8.09 107.85 8.58L107.85 8.58L107.85 8.58Q107.60 9.07 107.60 9.66L107.60 9.66L107.60 13.86L107.60 13.86Q107.60 14 107.46 14L107.46 14L107.20 14L107.20 14Q107.06 14 107.06 13.86L107.06 13.86L107.06 7.11L107.06 7.11Q107.06 6.97 107.20 6.97L107.20 6.97L107.46 6.97L107.46 6.97Q107.60 6.97 107.60 7.11L107.60 7.11L107.60 8.16L107.60 8.16Q107.60 8.20 107.63 8.21L107.63 8.21L107.63 8.21Q107.65 8.22 107.66 8.18L107.66 8.18L107.66 8.18Q107.95 7.59 108.44 7.25L108.44 7.25L108.44 7.25Q108.93 6.92 109.58 6.92L109.58 6.92ZM113.78 14L113.78 14Q113.65 14 113.61 13.89L113.61 13.89L111.29 7.13L111.27 7.07L111.27 7.07Q111.27 6.97 111.40 6.97L111.40 6.97L111.71 6.97L111.71 6.97Q111.83 6.97 111.87 7.08L111.87 7.08L113.89 13.12L113.89 13.12Q113.90 13.15 113.93 13.15L113.93 13.15L113.93 13.15Q113.96 13.15 113.97 13.12L113.97 13.12L116.00 7.08L116.00 7.08Q116.05 6.97 116.17 6.97L116.17 6.97L116.48 6.97L116.48 6.97Q116.63 6.97 116.59 7.13L116.59 7.13L114.27 13.89L114.27 13.89Q114.23 14 114.10 14L114.10 14L113.78 14ZM118.80 5.43L118.80 5.43Q118.57 5.43 118.41 5.28L118.41 5.28L118.41 5.28Q118.24 5.12 118.24 4.90L118.24 4.90L118.24 4.90Q118.24 4.69 118.41 4.54L118.41 4.54L118.41 4.54Q118.57 4.40 118.80 4.40L118.80 4.40L118.80 4.40Q119.04 4.40 119.20 4.54L119.20 4.54L119.20 4.54Q119.35 4.69 119.35 4.90L119.35 4.90L119.35 4.90Q119.35 5.14 119.20 5.29L119.20 5.29L119.20 5.29Q119.04 5.43 118.80 5.43L118.80 5.43ZM118.66 14L118.66 14Q118.52 14 118.52 13.86L118.52 13.86L118.52 7.11L118.52 7.11Q118.52 6.97 118.66 6.97L118.66 6.97L118.93 6.97L118.93 6.97Q119.07 6.97 119.07 7.11L119.07 7.11L119.07 13.86L119.07 13.86Q119.07 14 118.93 14L118.93 14L118.66 14ZM124.24 14.11L124.24 14.11Q123.26 14.11 122.58 13.60L122.58 13.60L122.58 13.60Q121.91 13.09 121.69 12.24L121.69 12.24L121.69 12.24Q121.52 11.62 121.52 10.47L121.52 10.47L121.52 10.47Q121.52 9.39 121.69 8.72L121.69 8.72L121.69 8.72Q121.90 7.88 122.58 7.37L122.58 7.37L122.58 7.37Q123.26 6.86 124.24 6.86L124.24 6.86L124.24 6.86Q125.20 6.86 125.90 7.36L125.90 7.36L125.90 7.36Q126.60 7.85 126.80 8.60L126.80 8.60L126.80 8.60Q126.84 8.71 126.87 8.96L126.87 8.96L126.87 8.99L126.87 8.99Q126.87 9.09 126.74 9.11L126.74 9.11L126.49 9.14L126.46 9.14L126.46 9.14Q126.36 9.14 126.34 9.02L126.34 9.02L126.29 8.82L126.29 8.82Q126.17 8.19 125.60 7.77L125.60 7.77L125.60 7.77Q125.03 7.35 124.22 7.35L124.22 7.35L124.22 7.35Q123.41 7.35 122.86 7.78L122.86 7.78L122.86 7.78Q122.32 8.22 122.19 8.93L122.19 8.93L122.19 8.93Q122.07 9.49 122.07 10.49L122.07 10.49L122.07 10.49Q122.07 11.44 122.18 12.03L122.18 12.03L122.18 12.03Q122.33 12.74 122.87 13.18L122.87 13.18L122.87 13.18Q123.41 13.62 124.22 13.62L124.22 13.62L124.22 13.62Q125.03 13.62 125.61 13.20L125.61 13.20L125.61 13.20Q126.18 12.77 126.29 12.14L126.29 12.14L126.31 12.07L126.31 12.07Q126.32 11.93 126.48 11.96L126.48 11.96L126.71 12.00L126.71 12.00Q126.85 12.03 126.84 12.15L126.84 12.15L126.84 12.15Q126.83 12.18 126.83 12.24L126.83 12.24L126.83 12.24Q126.83 12.29 126.80 12.38L126.80 12.38L126.80 12.38Q126.63 13.13 125.92 13.62L125.92 13.62L125.92 13.62Q125.22 14.11 124.24 14.11L124.24 14.11ZM131.39 13.62L131.39 13.62Q132.12 13.62 132.64 13.29L132.64 13.29L132.64 13.29Q133.15 12.95 133.41 12.38L133.41 12.38L133.41 12.38Q133.45 12.25 133.57 12.29L133.57 12.29L133.76 12.35L133.76 12.35Q133.90 12.39 133.85 12.53L133.85 12.53L133.85 12.53Q133.57 13.24 132.92 13.68L132.92 13.68L132.92 13.68Q132.26 14.11 131.36 14.11L131.36 14.11L131.36 14.11Q130.41 14.11 129.75 13.62L129.75 13.62L129.75 13.62Q129.09 13.13 128.84 12.31L128.84 12.31L128.84 12.31Q128.69 11.72 128.69 10.47L128.69 10.47L128.69 10.47Q128.69 9.83 128.71 9.44L128.71 9.44L128.71 9.44Q128.73 9.06 128.80 8.75L128.80 8.75L128.80 8.75Q129.01 7.90 129.69 7.38L129.69 7.38L129.69 7.38Q130.37 6.86 131.35 6.86L131.35 6.86L131.35 6.86Q132.38 6.86 133.07 7.41L133.07 7.41L133.07 7.41Q133.76 7.97 133.94 8.89L133.94 8.89L133.94 8.89Q133.99 9.16 134.01 9.52L134.01 9.52L134.01 9.52Q134.02 9.88 134.02 10.47L134.02 10.47L134.02 10.47Q134.02 10.63 133.88 10.63L133.88 10.63L129.29 10.63L129.29 10.63Q129.23 10.63 129.23 10.68L129.23 10.68L129.23 10.68Q129.23 11.13 129.25 11.49L129.25 11.49L129.25 11.49Q129.26 11.86 129.30 12.03L129.30 12.03L129.30 12.03Q129.44 12.75 130.00 13.19L130.00 13.19L130.00 13.19Q130.55 13.62 131.39 13.62L131.39 13.62ZM131.35 7.35L131.35 7.35Q130.52 7.35 129.98 7.78L129.98 7.78L129.98 7.78Q129.44 8.22 129.30 8.92L129.30 8.92L129.30 8.92Q129.23 9.37 129.23 10.12L129.23 10.12L129.23 10.12Q129.23 10.18 129.29 10.18L129.29 10.18L133.42 10.18L133.42 10.18Q133.48 10.18 133.48 10.12L133.48 10.12L133.48 10.12Q133.48 9.23 133.41 8.95L133.41 8.95L133.41 8.95Q133.25 8.23 132.71 7.79L132.71 7.79L132.71 7.79Q132.16 7.35 131.35 7.35L131.35 7.35ZM138.42 14.06L138.42 14.06Q137.69 14.06 137.13 13.82L137.13 13.82L137.13 13.82Q136.57 13.58 136.25 13.17L136.25 13.17L136.25 13.17Q135.94 12.75 135.94 12.26L135.94 12.26L135.94 12.07L135.94 12.07Q135.94 11.93 136.08 11.93L136.08 11.93L136.33 11.93L136.33 11.93Q136.47 11.93 136.47 12.07L136.47 12.07L136.47 12.25L136.47 12.25Q136.47 12.60 136.72 12.91L136.72 12.91L136.72 12.91Q136.96 13.22 137.40 13.40L137.40 13.40L137.40 13.40Q137.84 13.59 138.40 13.59L138.40 13.59L138.40 13.59Q139.24 13.59 139.77 13.20L139.77 13.20L139.77 13.20Q140.29 12.80 140.29 12.17L140.29 12.17L140.29 12.17Q140.29 11.73 140.03 11.47L140.03 11.47L140.03 11.47Q139.76 11.20 139.42 11.07L139.42 11.07L139.42 11.07Q139.08 10.93 138.31 10.68L138.31 10.68L138.31 10.68Q137.55 10.44 137.08 10.23L137.08 10.23L137.08 10.23Q136.61 10.02 136.30 9.66L136.30 9.66L136.30 9.66Q135.98 9.30 135.98 8.74L135.98 8.74L135.98 8.74Q135.98 7.91 136.64 7.41L136.64 7.41L136.64 7.41Q137.30 6.92 138.38 6.92L138.38 6.92L138.38 6.92Q139.47 6.92 140.13 7.43L140.13 7.43L140.13 7.43Q140.80 7.94 140.80 8.72L140.80 8.72L140.80 8.76L140.80 8.76Q140.80 8.90 140.66 8.90L140.66 8.90L140.42 8.90L140.42 8.90Q140.28 8.90 140.28 8.81L140.28 8.81L140.28 8.72L140.28 8.72Q140.28 8.15 139.75 7.76L139.75 7.76L139.75 7.76Q139.23 7.38 138.36 7.38L138.36 7.38L138.36 7.38Q137.52 7.38 137.02 7.75L137.02 7.75L137.02 7.75Q136.51 8.12 136.51 8.71L136.51 8.71L136.51 8.71Q136.51 9.11 136.76 9.37L136.76 9.37L136.76 9.37Q137.00 9.63 137.38 9.79L137.38 9.79L137.38 9.79Q137.76 9.95 138.42 10.16L138.42 10.16L138.42 10.16Q139.24 10.42 139.71 10.61L139.71 10.61L139.71 10.61Q140.17 10.79 140.50 11.16L140.50 11.16L140.50 11.16Q140.84 11.54 140.84 12.14L140.84 12.14L140.84 12.14Q140.84 12.99 140.18 13.52L140.18 13.52L140.18 13.52Q139.51 14.06 138.42 14.06L138.42 14.06Z"></path></g><!----><g data-v-423bf9ae="" id="14fd4f0d-63aa-4a02-ad8e-c131a66e60e1" transform="matrix(1.154734374914348,0,0,1.154734374914348,360.2632812542826,-12.70672011398672)" stroke="none" fill="#f2274c"><path style="text-indent:0;text-transform:none;block-progression:tb" d="M50 11.031l-1.625 2.813-3.719 6.469-.531.937.531.938 25.75 44.593h-24.75l-.531.938-3.719 6.5L39.781 77H43l41.875.031L88.094 77l-1.625-2.813-34.844-60.343L50 11.03zM43.094 23l-1.625 2.813L6.625 86.186 5 88.97h11.813l.53-.938 25.75-44.594 11.844 20.47.5.937H67.25l-1.625-2.781-20.906-36.25L43.094 23zm-.125 24.125l-1.594 2.813-20.938 36.218-1.625 2.813H95l-1.625-2.813-3.719-6.469-.562-.937H36.53l11.813-20.469.531-.937-.531-.938-3.75-6.468-1.625-2.813z" overflow="visible" color="#000"></path></g><!----></svg>